<svg width="143" height="31" viewBox="0 0 143 31" fill="none" xmlns="http://www.w3.org/2000/svg">
<path d="M8.36719 8.91899C11.737 8.919 14.9478 10.261 16.2861 12.5743L13.3203 15.0508C12.5084 13.5086 10.6804 12.6971 9.05664 12.6563C7.43303 12.5748 5.52375 13.1047 5.52344 14.9727C5.52344 16.5964 7.83687 17.0046 10.3984 17.8165C13.4865 18.8322 16.9383 20.1335 16.9385 24.3965C16.9385 28.6598 13.2011 30.4471 8.65234 30.4063C4.75248 30.4062 1.46431 28.7823 0 26.3838L3.04395 23.7452C3.81533 25.4908 5.96923 26.5467 8.08203 26.669C10.3949 26.7505 11.9401 25.9799 11.9404 24.3936C11.9404 22.8069 9.74618 22.2389 7.31055 21.4678C4.22248 20.4521 0.648438 19.1915 0.648438 15.0098C0.648681 11.0693 4.05957 8.95977 8.36719 8.91899ZM49.7988 8.91899C53.6172 8.919 56.0525 10.9917 57.3945 13.835V9.32719H62.4736V29.917H57.3945V25.3682C56.0525 28.2931 53.6172 30.4024 49.7988 30.4024C43.9489 30.4024 39.9707 25.7719 39.9707 19.5586C39.9708 13.3455 43.9527 8.91899 49.7988 8.91899ZM85.6885 8.91899C92.8359 8.91904 96.7767 13.9542 96.3281 20.9014H80.124C80.4504 23.9892 82.8042 26.0986 86.1738 26.0987C88.2869 26.1395 90.1551 25.3679 91.3711 24.1075L95.0674 26.7881C93.0358 29.105 89.7883 30.4024 86.1738 30.4024C79.2711 30.4023 74.9639 25.7719 74.9639 19.5586H74.9668C74.9669 13.3455 78.9897 8.91899 85.6885 8.91899ZM29.5469 8.91606C33.2428 8.95694 36.0452 10.458 37.9951 13.0196L34.666 15.7813C33.5687 14.3207 31.8635 13.505 29.832 13.5049C26.2991 13.4641 23.7002 15.8592 23.7002 19.6368C23.7002 23.4144 26.2991 25.8504 29.832 25.8096C31.8635 25.8096 33.6505 24.9563 34.707 23.4141L38.1172 26.0538C36.1265 28.6932 33.2835 30.3984 29.5469 30.3985C23.0483 30.3985 18.7844 25.7688 18.7842 19.5557C18.7842 13.3424 23.0482 8.87528 29.5469 8.91606ZM138.138 9.32719H142.278V13.4678H138.138V22.1983C138.138 25.3678 139.357 26.2202 142.768 25.9756V29.917C136.473 30.4026 133.063 29.431 133.062 22.9327V13.4678H129.934V9.32719H133.062V4.20024L138.138 2.98051V9.32719ZM71.2559 29.9581H66.1807V0.592819H71.2559V29.9581ZM105.147 16.7559L113.352 9.32329H119.201L109.333 18.584L120.014 29.9581H114.004L105.151 20.4522H105.147V29.9581H100.072V0.592819H105.147V16.7559ZM127.472 29.9571H122.396V9.32329H127.472V29.9571ZM51.1855 13.5088C47.6934 13.5088 45.0947 15.863 45.0947 19.6407C45.0948 23.4182 47.6934 25.8125 51.1855 25.8125C54.6776 25.8124 57.3574 23.3774 57.3574 19.6407C57.3574 15.8631 54.6776 13.509 51.1855 13.5088ZM85.9297 13.1827C82.5969 13.1827 80.4871 15.1735 80.1201 18.2579L80.124 18.2618L91.8613 18.1797C91.4943 15.1326 89.2622 13.1828 85.9297 13.1827ZM124.914 0.71489C126.552 0.71489 127.88 2.0429 127.88 3.68071C127.88 5.31865 126.552 6.64653 124.914 6.64653C123.276 6.64635 121.948 5.31854 121.948 3.68071C121.948 2.04301 123.276 0.715067 124.914 0.71489Z" fill="#FDFDFE"/>
</svg>
